<?xml version="1.0" encoding="UTF-8"?>
<svg version="1.1" xmlns="http://www.w3.org/2000/svg" width="512" height="512">
<path d="M0 0 C1.17731689 0.00491455 2.35463379 0.0098291 3.56762695 0.01489258 C37.70157282 0.47119747 68.16206581 14.71560297 91.92211914 38.96704102 C97.62904217 44.97915426 102.58910157 51.11278619 106.75 58.3125 C107.16330566 59.02664062 107.57661133 59.74078125 108.00244141 60.4765625 C114.69274693 72.23066519 120.15847418 83.95758846 122.75 97.3125 C123.36818604 97.43254395 123.98637207 97.55258789 124.62329102 97.67626953 C148.52707065 102.39269046 169.29302625 109.97353963 187.75 126.3125 C188.45382812 126.88484375 189.15765625 127.4571875 189.8828125 128.046875 C207.61472478 142.64962629 222.53155443 168.25994625 225.5 191.125 C225.5825 192.176875 225.665 193.22875 225.75 194.3125 C226.58917969 194.51552734 226.58917969 194.51552734 227.4453125 194.72265625 C239.14592962 197.86414027 249.61943772 203.38376676 258.75 211.3125 C259.54792969 211.95574219 260.34585937 212.59898437 261.16796875 213.26171875 C276.78750672 226.36275757 287.37624501 246.04063236 289.75 266.3125 C291.76824879 294.28238188 285.09016867 317.95579189 266.5 339.46484375 C250.4798956 356.05384391 228.30182599 365.90580663 205.23339844 366.47119141 C200.30085151 366.53178241 195.36993603 366.4880793 190.4375 366.4375 C188.71419796 366.42744213 186.99089018 366.41832128 185.26757812 366.41015625 C181.09490738 366.38838343 176.92251913 366.35401125 172.75 366.3125 C172.36569824 367.53469238 171.98139648 368.75688477 171.58544922 370.01611328 C169.52894848 376.17571189 166.95485833 382.09612079 164.3828125 388.0546875 C163.86621063 389.25884308 163.34960876 390.46299866 162.81735229 391.7036438 C161.72858653 394.24104746 160.63747891 396.77742525 159.54443359 399.31298828 C158.15727915 402.53087815 156.7742834 405.75053286 155.39285469 408.97088432 C154.05768731 412.08280321 152.72027111 415.19375259 151.3828125 418.3046875 C150.89305939 419.44461151 150.40330627 420.58453552 149.89871216 421.75900269 C146.92906596 428.64774525 143.88266867 435.49632273 140.75 442.3125 C133.92435792 441.86256286 128.43927341 439.14795984 122.3125 436.25 C121.29478516 435.77755859 120.27707031 435.30511719 119.22851562 434.81835938 C116.73173363 433.65788324 114.23920564 432.48911697 111.75 431.3125 C114.08466073 423.90348584 116.97574936 416.82658192 120.0390625 409.69140625 C120.54295502 408.5102977 121.04684753 407.32918915 121.56600952 406.11228943 C122.89404347 402.99974477 124.22640622 399.88907144 125.55963135 396.77874756 C126.65084147 394.23095693 127.73890394 391.68182796 128.82682228 389.13263035 C131.07218075 383.87160323 133.31991947 378.61158993 135.57275391 373.35375977 C135.97007721 372.42604263 136.36740051 371.4983255 136.77676392 370.54249573 C137.39910364 369.11651599 138.05419472 367.70411056 138.75 366.3125 C125.55 366.6425 112.35 366.9725 98.75 367.3125 C95.90879698 373.85409336 93.06770664 380.39573421 90.22751617 386.93776703 C88.90380594 389.98669917 87.5798785 393.0355365 86.25561523 396.08422852 C85.23141147 398.44218834 84.20767738 400.80035224 83.18441772 403.15872192 C82.16988115 405.4944493 81.15298102 407.8291515 80.13369751 410.16281128 C77.74227018 415.65043669 75.39502769 421.1468527 73.16357422 426.70166016 C72.76343613 427.68282303 72.36329803 428.6639859 71.95103455 429.67488098 C71.20947995 431.50104993 70.48337586 433.33359795 69.77565002 435.17314148 C67.39596635 440.98812609 67.39596635 440.98812609 64.36865234 442.50830078 C61.09821454 442.26376497 58.77942711 441.36695647 55.79296875 440.00390625 C54.68115234 439.50439453 53.56933594 439.00488281 52.42382812 438.49023438 C50.6980957 437.69069336 50.6980957 437.69069336 48.9375 436.875 C47.76767578 436.34583984 46.59785156 435.81667969 45.39257812 435.27148438 C42.50602916 433.96370097 39.6268261 432.64147406 36.75 431.3125 C39.9806347 422.74309029 43.40234183 414.28620138 47.05078125 405.88671875 C47.5320195 404.77311478 48.01325775 403.6595108 48.50907898 402.51216125 C50.0244509 399.00704802 51.54340641 395.50350165 53.0625 392 C54.09984838 389.60231693 55.13695984 387.20453135 56.17382812 384.80664062 C58.69604903 378.97387878 61.22312606 373.14325628 63.75 367.3125 C50.55 366.9825 37.35 366.6525 23.75 366.3125 C22.265 370.7675 22.265 370.7675 20.75 375.3125 C19.99400461 377.21279604 19.21148617 379.1029303 18.39331055 380.97729492 C17.95242599 381.99252731 17.51154144 383.0077597 17.05729675 384.05375671 C16.58850601 385.12269669 16.11971527 386.19163666 15.63671875 387.29296875 C14.89866753 388.98864738 14.89866753 388.98864738 14.14570618 390.71858215 C12.57990862 394.31397212 11.00886215 397.90703904 9.4375 401.5 C8.39351763 403.89372211 7.34989455 406.28760095 6.30664062 408.68164062 C4.79837379 412.14262811 3.28985355 415.60350164 1.77975464 419.06369019 C-1.59572659 426.79969447 -4.94656321 434.54544297 -8.25 442.3125 C-14.81474552 441.52689285 -20.09457561 439.58860937 -26.125 437 C-27.08664063 436.60876953 -28.04828125 436.21753906 -29.0390625 435.81445312 C-29.95171875 435.42580078 -30.864375 435.03714844 -31.8046875 434.63671875 C-32.63468262 434.28697998 -33.46467773 433.93724121 -34.31982422 433.5769043 C-36.25 432.3125 -36.25 432.3125 -36.99153137 430.55700684 C-37.33654217 427.56097943 -36.52866386 425.89054548 -35.31567383 423.13598633 C-34.86803177 422.10423782 -34.42038971 421.07248932 -33.95918274 420.00947571 C-33.46347275 418.89904404 -32.96776276 417.78861237 -32.45703125 416.64453125 C-31.95459396 415.49514572 -31.45215668 414.34576019 -30.93449402 413.1615448 C-29.59447896 410.10182971 -28.24464829 407.04684222 -26.88989258 403.99365234 C-25.52694446 400.91545674 -24.17713899 397.83151452 -22.82617188 394.74804688 C-18.66212498 385.25710429 -14.46363013 375.78152104 -10.25 366.3125 C-11.19388077 366.31916183 -12.13776154 366.32582367 -13.11024475 366.33268738 C-22.06766627 366.3938804 -31.0250446 366.4386541 -39.98262882 366.46793652 C-44.58624645 366.48349768 -49.18969343 366.50455817 -53.79321289 366.53881836 C-58.24770691 366.57175661 -62.70203828 366.58942451 -67.15664482 366.59713173 C-68.84404493 366.60261412 -70.53143759 366.61331689 -72.21876717 366.62969017 C-95.69098762 366.84810171 -115.08376756 361.45225308 -132.55859375 345.16015625 C-146.76581332 330.28827143 -151.82967249 311.62751606 -151.5234375 291.56640625 C-150.82572624 272.55895539 -141.71835333 256.05095747 -128 243.125 C-121.03386599 237.23879477 -113.88958636 232.84730175 -105.00366211 230.70947266 C-99.91836017 229.4624976 -96.23170366 228.55229672 -92.828125 224.25390625 C-89.77588596 218.50449163 -89.77588596 218.50449163 -89.8203125 212.265625 C-91.37746703 210.13836471 -93.06241988 208.16022199 -94.82910156 206.2043457 C-118.32630069 180.08692626 -125.83604838 146.60297969 -124.25 112.3125 C-123.7471413 106.53468725 -122.66851437 100.93071047 -121.25 95.3125 C-121.08371094 94.65378906 -120.91742188 93.99507813 -120.74609375 93.31640625 C-112.47033529 61.8685241 -92.25121672 34.31355894 -64.35400391 17.52099609 C-44.26663365 5.98322831 -23.23645978 -0.11614022 0 0 Z " fill="#D2D2D7" transform="translate(208.25,69.6875)"/>
<path d="M0 0 C0 85.47 0 170.94 0 259 C-3.45904646 259.69180929 -5.93869795 260.1240288 -9.33129883 260.11352539 C-10.56200859 260.11341209 -10.56200859 260.11341209 -11.81758118 260.11329651 C-12.6885997 260.10813522 -13.55961823 260.10297394 -14.45703125 260.09765625 C-15.35999435 260.0962413 -16.26295746 260.09482635 -17.19328308 260.09336853 C-20.06638963 260.08778823 -22.93941716 260.07523934 -25.8125 260.0625 C-27.76497283 260.05748245 -29.71744689 260.05291999 -31.66992188 260.04882812 C-36.44664485 260.03782525 -41.22330904 260.02057418 -46 260 C-46.38953857 261.23790283 -46.77907715 262.47580566 -47.18041992 263.7512207 C-49.14838461 269.64563511 -51.6190385 275.29307874 -54.11328125 280.98046875 C-54.85133247 282.67614738 -54.85133247 282.67614738 -55.60429382 284.40608215 C-57.17009138 288.00147212 -58.74113785 291.59453904 -60.3125 295.1875 C-61.35648237 297.58122211 -62.40010545 299.97510095 -63.44335938 302.36914062 C-64.95162621 305.83012811 -66.46014645 309.29100164 -67.97024536 312.75119019 C-71.34572659 320.48719447 -74.69656321 328.23294297 -78 336 C-84.56474552 335.21439285 -89.84457561 333.27610937 -95.875 330.6875 C-96.83664063 330.29626953 -97.79828125 329.90503906 -98.7890625 329.50195312 C-99.70171875 329.11330078 -100.614375 328.72464844 -101.5546875 328.32421875 C-102.38468262 327.97447998 -103.21467773 327.62474121 -104.06982422 327.2644043 C-106 326 -106 326 -106.74153137 324.24450684 C-107.08654217 321.24847943 -106.27866386 319.57804548 -105.06567383 316.82348633 C-104.61803177 315.79173782 -104.17038971 314.75998932 -103.70918274 313.69697571 C-103.21347275 312.58654404 -102.71776276 311.47611237 -102.20703125 310.33203125 C-101.70459396 309.18264572 -101.20215668 308.03326019 -100.68449402 306.8490448 C-99.34447896 303.78932971 -97.99464829 300.73434222 -96.63989258 297.68115234 C-95.27694446 294.60295674 -93.92713899 291.51901452 -92.57617188 288.43554688 C-88.41212498 278.94460429 -84.21363013 269.46902104 -80 260 C-80.94388077 260.00666183 -81.88776154 260.01332367 -82.86024475 260.02018738 C-91.81766627 260.0813804 -100.7750446 260.1261541 -109.73262882 260.15543652 C-114.33624645 260.17099768 -118.93969343 260.19205817 -123.54321289 260.22631836 C-127.99770691 260.25925661 -132.45203828 260.27692451 -136.90664482 260.28463173 C-138.59404493 260.29011412 -140.28143759 260.30081689 -141.96876717 260.31719017 C-165.44098762 260.53560171 -184.83376756 255.13975308 -202.30859375 238.84765625 C-216.51581332 223.97577143 -221.57967249 205.31501606 -221.2734375 185.25390625 C-220.57572624 166.24645539 -211.46835333 149.73845747 -197.75 136.8125 C-190.80322506 130.94265269 -183.68584625 126.52911734 -174.80737305 124.45019531 C-167.92337355 122.79483858 -167.92337355 122.79483858 -162.77734375 118.0703125 C-161.35278421 115.04607027 -160.09487322 112.01605151 -158.86328125 108.91259766 C-148.20412446 85.2972599 -124.60155851 69.01511409 -101.4453125 59.62890625 C-93.85600045 56.76575073 -87.48381341 55.87903411 -79.40576172 55.72460938 C-69.02614173 55.78779973 -69.02614173 55.78779973 -60.02734375 51.5546875 C-58.3384682 48.43246368 -57.18858676 45.34013026 -56 42 C-54.06640625 39.23046875 -54.06640625 39.23046875 -51.9375 36.6875 C-51.26203125 35.87796875 -50.5865625 35.0684375 -49.890625 34.234375 C-48.95476562 33.12835938 -48.95476562 33.12835938 -48 32 C-47.52046875 31.38640625 -47.0409375 30.7728125 -46.546875 30.140625 C-42.10627629 24.57711627 -36.59728786 20.34843063 -31 16 C-30.1440625 15.31679687 -29.288125 14.63359375 -28.40625 13.9296875 C-23.07378501 9.83396891 -17.54385534 6.53358989 -11.5625 3.5 C-10.87583252 3.14929443 -10.18916504 2.79858887 -9.48168945 2.43725586 C-6.00521885 0.73485383 -3.94235288 0 0 0 Z " fill="#EAEAEF" transform="translate(278,176)"/>
<path d="M0 0 C1.17731689 0.00491455 2.35463379 0.0098291 3.56762695 0.01489258 C37.70157282 0.47119747 68.16206581 14.71560297 91.92211914 38.96704102 C97.62904217 44.97915426 102.58910157 51.11278619 106.75 58.3125 C107.16330566 59.02664062 107.57661133 59.74078125 108.00244141 60.4765625 C114.86097692 72.52622607 120.54496961 84.51572231 122.75 98.3125 C121.96052979 98.3218457 121.17105957 98.33119141 120.35766602 98.34082031 C90.03175456 98.79117235 63.27574081 103.86105039 38.75 123.3125 C37.24953125 124.47265625 37.24953125 124.47265625 35.71875 125.65625 C24.167257 134.87410805 16.4634254 145.91883551 8.75 158.3125 C8.09 159.3025 7.43 160.2925 6.75 161.3125 C4.39013672 161.75732422 4.39013672 161.75732422 1.4296875 161.8671875 C0.34478027 161.92148926 -0.74012695 161.97579102 -1.85791016 162.03173828 C-3.0185498 162.08313965 -4.17918945 162.13454102 -5.375 162.1875 C-31.21895759 163.78976198 -54.81439585 174.75465701 -72.86328125 193.51953125 C-76.60188406 197.89449199 -79.87893057 202.5593208 -83.12109375 207.30859375 C-84.73395964 209.58436232 -86.18961726 211.46411806 -88.25 213.3125 C-112.98541117 188.06851028 -124.84521611 156.26817846 -124.60375977 121.09326172 C-124.40457229 112.27088688 -123.40980544 103.86669003 -121.25 95.3125 C-121.08371094 94.65378906 -120.91742188 93.99507813 -120.74609375 93.31640625 C-112.47033529 61.8685241 -92.25121672 34.31355894 -64.35400391 17.52099609 C-44.26663365 5.98322831 -23.23645978 -0.11614022 0 0 Z " fill="#FDD943" transform="translate(208.25,69.6875)"/>
<path d="M0 0 C34.23369128 0 64.58865654 12.30572704 89 36.4375 C95.54063708 43.11340483 101.30674334 49.87913251 106 58 C106.41330566 58.71414062 106.82661133 59.42828125 107.25244141 60.1640625 C114.11097692 72.21372607 119.79496961 84.20322231 122 98 C121.21052979 98.0093457 120.42105957 98.01869141 119.60766602 98.02832031 C89.28175456 98.47867235 62.52574081 103.54855039 38 123 C36.9996875 123.7734375 35.999375 124.546875 34.96875 125.34375 C23.30242987 134.65323778 13.70030826 146.59938347 7 160 C4.69 160 2.38 160 0 160 C0 107.2 0 54.4 0 0 Z " fill="#FBBE2C" transform="translate(209,70)"/>
<path d="M0 0 C10.89 0 21.78 0 33 0 C32.20742717 3.96286415 31.36124316 6.81756923 29.79443359 10.4543457 C29.33660492 11.52348709 28.87877625 12.59262848 28.40707397 13.69416809 C27.66029892 15.4175666 27.66029892 15.4175666 26.8984375 17.17578125 C26.12640488 18.97271675 26.12640488 18.97271675 25.33877563 20.80595398 C23.96810971 23.99589579 22.59157744 27.18327374 21.21386719 30.37017822 C19.83806411 33.55572692 18.46820012 36.74382666 17.09765625 39.93164062 C11.77434292 52.30632753 6.42514489 64.66957604 1 77 C-5.56474552 76.21439285 -10.84457561 74.27610937 -16.875 71.6875 C-17.83664063 71.29626953 -18.79828125 70.90503906 -19.7890625 70.50195312 C-20.70171875 70.11330078 -21.614375 69.72464844 -22.5546875 69.32421875 C-23.38468262 68.97447998 -24.21467773 68.62474121 -25.06982422 68.2644043 C-27 67 -27 67 -27.74053955 65.24351501 C-28.08614216 62.25514185 -27.28724295 60.58903874 -26.08154297 57.83935547 C-25.6371286 56.81083466 -25.19271423 55.78231384 -24.73483276 54.72262573 C-24.24225983 53.61533112 -23.74968689 52.5080365 -23.2421875 51.3671875 C-22.74212189 50.22017365 -22.24205627 49.07315979 -21.72683716 47.89138794 C-20.66428549 45.45958675 -19.59773558 43.03009551 -18.5234375 40.60351562 C-16.89078507 36.91570868 -15.27680195 33.21999829 -13.6640625 29.5234375 C-12.62847885 27.15847096 -11.59204695 24.79387565 -10.5546875 22.4296875 C-9.83404617 20.78696365 -9.83404617 20.78696365 -9.09884644 19.11105347 C-8.6355191 18.06361969 -8.17219177 17.01618591 -7.69482422 15.93701172 C-7.0940657 14.57610916 -7.0940657 14.57610916 -6.48117065 13.18771362 C-4.41720001 8.7457222 -2.19049139 4.38098278 0 0 Z " fill="#AED0FE" transform="translate(199,435)"/>
<path d="M0 0 C10.89 0 21.78 0 33 0 C34 2 34 2 33.30764771 4.11128235 C32.92398041 4.98504013 32.54031311 5.85879791 32.14501953 6.7590332 C31.71351593 7.75220047 31.28201233 8.74536774 30.83743286 9.76863098 C30.35740814 10.85174057 29.87738342 11.93485016 29.3828125 13.05078125 C28.64694412 14.73641426 28.64694412 14.73641426 27.89620972 16.45610046 C26.58014715 19.46723551 25.25743323 22.47533008 23.93133545 25.48205566 C22.10495913 29.6280723 20.29206355 33.78001097 18.47674561 37.93087769 C17.45785659 40.25609767 16.43544831 42.5797788 15.40948486 44.90188599 C12.99932527 50.36635567 10.63873855 55.83948047 8.40917969 61.38037109 C7.80890457 62.85197945 7.80890457 62.85197945 7.19650269 64.35331726 C6.45532288 66.1803755 5.72967294 68.01383972 5.02249146 69.85432434 C2.64409877 75.67639865 2.64409877 75.67639865 -0.38110352 77.19628906 C-3.65143156 76.95117452 -5.97062382 76.05443323 -8.95703125 74.69140625 C-10.06884766 74.19189453 -11.18066406 73.69238281 -12.32617188 73.17773438 C-13.47666016 72.64470703 -14.62714844 72.11167969 -15.8125 71.5625 C-17.56723633 70.76875977 -17.56723633 70.76875977 -19.35742188 69.95898438 C-22.24397084 68.65120097 -25.1231739 67.32897406 -28 66 C-24.7777536 57.4557008 -21.36950177 49.02098519 -17.734375 40.64453125 C-17.25550842 39.53567062 -16.77664185 38.42681 -16.28326416 37.28434753 C-14.77459197 33.79268132 -13.26228859 30.30260117 -11.75 26.8125 C-10.72112948 24.43173771 -9.69248174 22.05087914 -8.6640625 19.66992188 C-7.68769658 17.41137334 -6.71114107 15.15290676 -5.734375 12.89453125 C-5.27399841 11.83007278 -4.81362183 10.76561432 -4.33929443 9.66889954 C-3.91505188 8.68995224 -3.49080933 7.71100494 -3.05371094 6.70239258 C-2.68018494 5.84003494 -2.30665894 4.97767731 -1.92181396 4.08918762 C-1.3138319 2.71126468 -0.67354492 1.34708985 0 0 Z " fill="#ADCFFE" transform="translate(273,435)"/>
<path d="M0 0 C11.22 0 22.44 0 34 0 C30.62473174 10.12580478 30.62473174 10.12580478 28.53564453 14.98779297 C28.07151154 16.07277069 27.60737854 17.15774841 27.12918091 18.27560425 C26.63537933 19.41957672 26.14157776 20.56354919 25.6328125 21.7421875 C25.11621063 22.94634308 24.59960876 24.15049866 24.06735229 25.3911438 C22.97858653 27.92854746 21.88747891 30.46492525 20.79443359 33.00048828 C19.40727915 36.21837815 18.0242834 39.43803286 16.64285469 42.65838432 C15.30768731 45.77030321 13.97027111 48.88125259 12.6328125 51.9921875 C12.14305939 53.13211151 11.65330627 54.27203552 11.14871216 55.44650269 C8.17906596 62.33524525 5.13266867 69.18382273 2 76 C-4.82564208 75.55006286 -10.31072659 72.83545984 -16.4375 69.9375 C-17.45521484 69.46505859 -18.47292969 68.99261719 -19.52148438 68.50585938 C-22.01826637 67.34538324 -24.51079436 66.17661697 -27 65 C-24.66533927 57.59098584 -21.77425064 50.51408192 -18.7109375 43.37890625 C-18.20704498 42.1977977 -17.70315247 41.01668915 -17.18399048 39.79978943 C-15.85595653 36.68724477 -14.52359378 33.57657144 -13.19036865 30.46624756 C-12.09915853 27.91845693 -11.01109606 25.36932796 -9.92317772 22.82013035 C-7.67781925 17.55910323 -5.43008053 12.29908993 -3.17724609 7.04125977 C-2.77992279 6.11354263 -2.38259949 5.1858255 -1.97323608 4.22999573 C-1.35089636 2.80401599 -0.69580528 1.39161056 0 0 Z " fill="#6BAAFF" transform="translate(347,436)"/>
<path d="M0 0 C4.15020378 1.26264223 7.68170244 2.80902146 11.3984375 5.0390625 C12.85830078 5.90917969 12.85830078 5.90917969 14.34765625 6.796875 C15.84619141 7.70179687 15.84619141 7.70179687 17.375 8.625 C18.39722656 9.23601563 19.41945313 9.84703125 20.47265625 10.4765625 C22.98492073 11.97922537 25.49385721 13.48715715 28 15 C23.86515426 23.62519701 19.23803517 31.82554221 14.34765625 40.0390625 C11.80520116 44.30990104 9.38003829 48.63659646 7 53 C1.23891859 51.88972554 -3.65089834 48.42873405 -8.6875 45.5625 C-9.75806641 44.96373047 -10.82863281 44.36496094 -11.93164062 43.74804688 C-12.94806641 43.17248047 -13.96449219 42.59691406 -15.01171875 42.00390625 C-15.94459717 41.47611572 -16.87747559 40.9483252 -17.83862305 40.40454102 C-20 39 -20 39 -21 37 C-20.04711914 34.88378906 -20.04711914 34.88378906 -18.53515625 32.265625 C-17.98561279 31.30470947 -17.43606934 30.34379395 -16.86987305 29.35375977 C-16.27343994 28.32951904 -15.67700684 27.30527832 -15.0625 26.25 C-14.46800049 25.21480225 -13.87350098 24.17960449 -13.26098633 23.11303711 C-12.0675811 21.03619153 -10.87091883 18.9612139 -9.67089844 16.88818359 C-7.84156941 13.72614935 -6.02973738 10.55452291 -4.22241211 7.37988281 C-2.8199475 4.91705041 -1.41026264 2.45837324 0 0 Z " fill="#F7AA01" transform="translate(292,18)"/>
<path d="M0 0 C1.74584961 2.57275391 1.74584961 2.57275391 3.65234375 5.9765625 C3.99374893 6.5800351 4.33515411 7.18350769 4.68690491 7.80526733 C5.77912383 9.74043823 6.85844644 11.68246301 7.9375 13.625 C8.65996016 14.91063266 9.38325848 16.1957947 10.10742188 17.48046875 C11.4518017 19.86776339 12.79016338 22.2580636 14.12475586 24.65087891 C15.10642067 26.40409826 16.09998014 28.15370763 17.19558716 29.83807373 C20.10996523 34.4253187 20.10996523 34.4253187 19.57226562 37.23535156 C17.55094827 39.50399781 15.50091865 40.75462892 12.84375 42.234375 C11.31041016 43.09482422 11.31041016 43.09482422 9.74609375 43.97265625 C8.67488281 44.55917969 7.60367188 45.14570312 6.5 45.75 C5.42878906 46.35199219 4.35757813 46.95398438 3.25390625 47.57421875 C-4.70447137 52 -4.70447137 52 -7 52 C-7.42297363 51.26475098 -7.84594727 50.52950195 -8.28173828 49.77197266 C-9.88012946 46.99453344 -11.47935093 44.21757435 -13.07910156 41.44091797 C-13.7659482 40.24839573 -14.45248165 39.05569303 -15.13867188 37.86279297 C-16.13585493 36.12938559 -17.1343307 34.39672209 -18.1328125 32.6640625 C-18.78024414 31.53774414 -19.42767578 30.41142578 -20.09472656 29.25097656 C-22.32668096 25.44258282 -24.66767235 21.70970472 -27.06201172 18.00146484 C-28 16 -28 16 -27 13 C-23.23849365 10.27863475 -19.14526774 8.06707739 -15.125 5.75 C-14.00996094 5.08742188 -12.89492187 4.42484375 -11.74609375 3.7421875 C-10.67746094 3.12085938 -9.60882813 2.49953125 -8.5078125 1.859375 C-7.52441895 1.28670898 -6.54102539 0.71404297 -5.52783203 0.12402344 C-3 -1 -3 -1 0 0 Z " fill="#FCBE2B" transform="translate(126,19)"/>
<path d="M0 0 C4.53473422 4.25904787 7.28930173 9.14903618 10.375 14.5 C10.94605469 15.45003906 11.51710937 16.40007812 12.10546875 17.37890625 C12.63527344 18.29542969 13.16507813 19.21195312 13.7109375 20.15625 C14.44256104 21.40631836 14.44256104 21.40631836 15.18896484 22.68164062 C16 25 16 25 15.3684082 27.16137695 C13.84518303 29.20801545 12.64363331 30.0794375 10.39453125 31.26171875 C9.30035889 31.8508606 9.30035889 31.8508606 8.18408203 32.4519043 C7.40145996 32.85965088 6.61883789 33.26739746 5.8125 33.6875 C4.17956297 34.55983474 2.54807503 35.4348869 0.91796875 36.3125 C0.09603027 36.75464844 -0.7259082 37.19679688 -1.57275391 37.65234375 C-3.88752479 38.93755148 -6.14061759 40.28631912 -8.38671875 41.6875 C-9.39859253 42.31845581 -9.39859253 42.31845581 -10.4309082 42.9621582 C-11.70246345 43.76360687 -12.96824135 44.57431494 -14.22729492 45.39526367 C-18.42350706 48.02195892 -18.42350706 48.02195892 -20.97412109 47.92480469 C-23.9742634 46.5552531 -24.82836269 44.55950975 -26.453125 41.72265625 C-27.071875 40.65208984 -27.690625 39.58152344 -28.328125 38.47851562 C-28.96234375 37.35123047 -29.5965625 36.22394531 -30.25 35.0625 C-30.8996875 33.93908203 -31.549375 32.81566406 -32.21875 31.65820312 C-37 23.30608259 -37 23.30608259 -37 21 C-33.17757569 18.8121878 -29.35472226 16.62512779 -25.53149414 14.4387207 C-24.2348306 13.6970581 -22.93827824 12.95520108 -21.6418457 12.21313477 C-14.45220847 8.09803171 -7.25824205 3.99343199 0 0 Z " fill="#FCBD2B" transform="translate(69,257)"/>
<path d="M0 0 C2.1536528 3.74556079 4.29654726 7.49716766 6.4375 11.25 C7.04916016 12.31347656 7.66082031 13.37695312 8.29101562 14.47265625 C8.87431641 15.49746094 9.45761719 16.52226563 10.05859375 17.578125 C10.59798584 18.52075195 11.13737793 19.46337891 11.69311523 20.43457031 C12.83208229 22.67037563 13.53372922 24.55018811 14 27 C5.74354594 32.24546313 -2.68442167 37.16589996 -11.1875 42 C-12.21560791 42.5880542 -13.24371582 43.1761084 -14.30297852 43.78198242 C-15.26905029 44.32830322 -16.23512207 44.87462402 -17.23046875 45.4375 C-18.10082764 45.93121094 -18.97118652 46.42492187 -19.86791992 46.93359375 C-22 48 -22 48 -24 48 C-28.95 39.42 -33.9 30.84 -39 22 C-35.14280452 18.91424362 -31.74185741 16.57866533 -27.4921875 14.1796875 C-26.58123825 13.66258713 -26.58123825 13.66258713 -25.65188599 13.13504028 C-23.72856525 12.0442215 -21.80196309 10.95936916 -19.875 9.875 C-17.94156155 8.78235446 -16.00883397 7.68847045 -14.07669067 6.59353638 C-12.32959703 5.60418608 -10.58061837 4.61816672 -8.83154297 3.63232422 C-2.53066108 0 -2.53066108 0 0 0 Z " fill="#F7AA01" transform="translate(371,84)"/>
<path d="M0 0 C4.37987559 1.32261146 8.11010944 3.03932877 12.0625 5.3359375 C13.18914063 5.98820312 14.31578125 6.64046875 15.4765625 7.3125 C16.05567383 7.65152344 16.63478516 7.99054688 17.23144531 8.33984375 C18.99213248 9.37039505 20.75729085 10.39290147 22.5234375 11.4140625 C27.78926218 14.47474779 32.95782007 17.58563263 38 21 C36.37967386 27.02121195 33.28604749 32.06110482 30.125 37.375 C29.59519531 38.30183594 29.06539062 39.22867188 28.51953125 40.18359375 C28.00003906 41.05886719 27.48054688 41.93414062 26.9453125 42.8359375 C26.47625488 43.63563965 26.00719727 44.4353418 25.52392578 45.25927734 C25.02103027 45.83371582 24.51813477 46.4081543 24 47 C20.18915208 47 19.34103679 46.91027101 16.26953125 45.1640625 C15.20001221 44.56343994 15.20001221 44.56343994 14.10888672 43.95068359 C12.97217529 43.29447021 12.97217529 43.29447021 11.8125 42.625 C11.02891113 42.1810791 10.24532227 41.7371582 9.43798828 41.27978516 C1.23727591 36.61451287 -6.89180466 31.82386305 -15 27 C-13.62938601 23.33057139 -11.96645212 20.06140503 -9.9609375 16.69921875 C-9.38085938 15.72275391 -8.80078125 14.74628906 -8.203125 13.74023438 C-7.59984375 12.73283203 -6.9965625 11.72542969 -6.375 10.6875 C-5.76398437 9.66076172 -5.15296875 8.63402344 -4.5234375 7.57617188 C-3.01880606 5.04886125 -1.5109006 2.52356601 0 0 Z " fill="#FCBD2B" transform="translate(47,84)"/>
<path d="M0 0 C14.19 0 28.38 0 43 0 C43 10.23 43 20.46 43 31 C28.81 31 14.62 31 0 31 C0 20.77 0 10.54 0 0 Z " fill="#FCBD2B" transform="translate(14,179)"/>
<path d="M0 0 C10.23 0 20.46 0 31 0 C31 14.19 31 28.38 31 43 C20.77 43 10.54 43 0 43 C0 28.81 0 14.62 0 0 Z " fill="#FBBD2B" transform="translate(193,0)"/>
<path d="M0 0 C8.91 0 17.82 0 27 0 C25.875 9 25.875 9 23.77514648 13.7734375 C23.31474472 14.83393311 22.85434296 15.89442871 22.37998962 16.98706055 C21.88205399 18.10508057 21.38411835 19.22310059 20.87109375 20.375 C20.36199966 21.5400708 19.85290558 22.7051416 19.3283844 23.90551758 C17.98282998 26.97977355 16.62840936 30.04979019 15.26940918 33.11810303 C13.88095596 36.25898184 12.50448469 39.40510109 11.12695312 42.55078125 C8.42891004 48.70537587 5.71904264 54.85465621 3 61 C2.34 61 1.68 61 1 61 C0.67 61.66 0.34 62.32 0 63 C0 42.21 0 21.42 0 0 Z " fill="#6DABFF" transform="translate(278,436)"/>
<path d="M0 0 C4.95 0 9.9 0 15 0 C15 14.19 15 28.38 15 43 C10.05 43 5.1 43 0 43 C0 28.81 0 14.62 0 0 Z " fill="#F7AA00" transform="translate(209,0)"/>
</svg>
